PathFileType	4	(X/Y/Z)	C:\Users\WrightLab\Desktop\Jo\P5V127.trc
DataRate	CameraRate	NumFrames	NumMarkers	Units	OrigDataRate	OrigDataStartFrame	OrigNumFrames
100.00	100.00	       47	19	mm	100.00	478	       636
Frame#	Time	Headset_Front			Headset_Back			Headset_Left			Headset_Right			Left_Shoulder			Right_Shoulder			Sternum			C7			Left Elbow			Right Elbow			Left Wrist			Right Wrist			Left ASIS			Right ASIS			S2			Left Knee			Right Knee			Left Ankle			Right Ankle			
		X1	Y1	Z1	X2	Y2	Z2	X3	Y3	Z3	X4	Y4	Z4	X5	Y5	Z5	X6	Y6	Z6	X7	Y7	Z7	X8	Y8	Z8	X9	Y9	Z9	X10	Y10	Z10	X11	Y11	Z11	X12	Y12	Z12	X13	Y13	Z13	X14	Y14	Z14	X15	Y15	Z15	X16	Y16	Z16	X17	Y17	Z17	X18	Y18	Z18	X19	Y19	Z19	

478	4.770																															-474.00174	1068.57410	1525.95776										-838.28760	996.05090	1458.26782	-578.83636	527.90350	1619.39001							-977.33234	298.54541	1508.10852	
479	4.780																															-470.82617	1069.97705	1532.63538										-836.48389	997.50903	1466.56848	-572.99768	528.40009	1621.45154							-971.80121	294.92392	1531.66272	
480	4.790																															-468.14447	1071.70313	1536.96460										-835.12756	998.51843	1474.40320	-568.23785	526.95557	1620.37952							-965.39056	290.54929	1555.57678	
481	4.800																															-465.26642	1073.49036	1542.72229										-833.64038	999.38898	1481.93811	-563.63348	528.23047	1623.59766							-959.25696	285.12143	1580.00085	
482	4.810																															-462.36780	1075.14758	1548.33472										-831.68390	1000.43756	1490.90039	-560.42993	529.74677	1623.02356							-952.21783	278.99634	1604.86487	
483	4.820																															-459.44330	1076.42078	1553.77319										-830.44592	1000.78601	1498.46655	-557.02722	530.97363	1626.88708							-944.75983	272.41470	1629.73792	
484	4.830																															-456.76639	1077.72058	1558.09863										-829.65326	1001.89685	1505.91077	-554.08575	532.23358	1631.03308							-937.39539	265.15427	1654.89636	
485	4.840																															-454.13211	1079.42383	1563.32971										-828.39423	1002.03656	1513.34631	-551.66010	533.48291	1635.62598							-929.35980	257.46362	1679.95142	
486	4.850																															-451.19196	1080.27588	1567.69885										-827.93286	1003.14630	1520.73132	-550.95374	532.06616	1639.86328							-920.74701	249.44153	1705.97107	
487	4.860																															-448.63657	1081.57043	1572.94812										-826.76532	1003.37982	1528.17993	-549.80573	531.43317	1645.03210							-911.59277	240.54572	1732.63770	
488	4.870																															-445.98816	1082.58069	1577.21008										-825.77319	1004.64960	1535.91919	-548.56744	531.69885	1651.48120							-901.96265	231.89363	1759.22827	
489	4.880																															-443.60355	1083.61755	1582.38293										-824.77252	1005.23962	1543.53809	-547.33972	529.95929	1657.54321							-892.13306	222.89532	1786.44373	
490	4.890																															-441.03552	1084.41431	1586.33057													-547.42572	530.65674	1660.57129							-881.31299	213.86815	1814.38586	
491	4.900																															-437.63217	1085.43530	1591.76733													-544.88593	531.06519	1664.66040							-870.13147	205.34550	1841.75867	
492	4.910																															-435.91016	1085.61487	1594.49304													-544.64673	530.61371	1665.61877							-858.30457	196.73183	1870.85486	
493	4.920																															-434.15637	1086.27563	1597.96326													-542.71210	532.08655	1670.07910							-845.19348	189.05032	1898.24524	
494	4.930																															-431.51059	1086.26648	1602.08826													-542.17322	532.66675	1670.63147							-831.47455	181.60016	1926.69104	
495	4.940																															-429.23416	1086.30188	1606.10913													-541.94482	531.79028	1671.90369							-817.15601	175.76108	1953.86499	
496	4.950																															-427.08810	1086.58801	1610.46606													-540.99188	530.94940	1674.59766							-801.62354	171.07826	1979.52527	
497	4.960																															-425.22208	1086.54260	1612.95300													-540.40161	530.07544	1678.02808							-786.42108	167.31493	2004.09314	
498	4.970																															-423.42957	1086.26819	1616.75867													-540.19379	529.80554	1679.73145										
499	4.980																															-421.11331	1086.11609	1619.70654													-539.28235	529.53845	1684.72864										
500	4.990																															-419.42136	1085.55676	1623.14905													-538.81604	528.40149	1688.14966										
501	5.000																															-417.74509	1085.38391	1626.75684													-538.27917	527.79272	1693.17004										
502	5.010																															-416.06766	1084.70496	1630.49194													-537.71765	526.61084	1697.33862										
503	5.020																															-414.50845	1084.10901	1633.70422													-536.13293	527.45105	1701.66516										
504	5.030																															-413.04486	1083.55566	1636.62085													-535.22125	525.67902	1707.03418										
505	5.040																															-411.31796	1083.08179	1640.08203													-533.49689	524.81158	1712.57556										
506	5.050																															-409.94458	1082.47705	1642.87317													-532.21716	524.25269	1716.94824										
507	5.060																															-408.94952	1081.84570	1646.00476													-530.95294	522.79895	1722.84192										
508	5.070																															-407.82382	1081.41736	1648.43506													-528.93695	522.34216	1729.99573										
509	5.080																															-406.64493	1080.69177	1651.85193													-527.80121	520.37323	1735.84143										
510	5.090																															-405.64679	1080.15479	1654.29956													-525.50702	520.50000	1743.02844										
511	5.100																															-404.75864	1079.57141	1657.55432													-523.79144	518.32019	1750.85498										
512	5.110																															-403.97949	1079.19824	1660.13794													-521.97614	518.02228	1757.66211										
513	5.120																															-403.27310	1079.25171	1661.87964													-518.85516	516.78931	1763.78210										
514	5.130																															-402.24774	1078.94775	1666.06653													-515.97296	516.56030	1773.58655										
515	5.140																															-402.19489	1078.90588	1667.73877													-512.85333	516.36731	1781.65039										
516	5.150																															-401.96622	1079.12781	1669.96118													-509.95374	516.86755	1789.70032										
517	5.160																															-402.12424	1079.55078	1671.90173													-505.80841	516.31494	1799.19006										
518	5.170																															-402.12766	1080.04004	1674.76245													-501.70416	517.59235	1807.38672										
519	5.180																															-402.58850	1080.67358	1677.46326													-497.40851	517.90009	1815.65918										
520	5.190																															-402.70502	1081.48242	1678.97888													-492.19553	519.62762	1824.52979										
521	5.200																															-402.66617	1082.19714	1681.32715													-486.32248	521.50372	1830.72510										
522	5.210																															-403.15289	1083.20068	1683.37830													-477.99222	524.31763	1836.42664										
523	5.220																															-403.36145	1084.22266	1684.46631													-468.85110	526.64191	1840.14929										
524	5.230																															-403.39975	1085.04932	1686.06152													-460.13449	529.46576	1842.55554										
